<svg width="16" height="16" viewBox="0 0 16 16" fill="none" xmlns="http://www.w3.org/2000/svg">
<path d="M13.7766 11.0308C13.5509 9.95996 12.5984 9.30707 11.5887 9.08821C11.8313 6.8951 12.4471 3.65493 10.177 2.39095C9.54121 2.03686 8.72891 1.9 8.02222 2.07753C7.26713 2.26723 6.71028 2.89391 6.31352 3.5275C5.8418 4.28058 5.54033 5.16725 5.28948 6.01362C5.13919 6.52067 5.04219 7.03833 4.97762 7.56268C4.95275 7.76462 4.93836 7.96768 4.93286 8.17096C4.93019 8.26893 4.9365 8.59919 4.92789 8.61396C4.90451 8.65381 4.88945 8.6933 4.88143 8.73174C3.77018 8.98067 2.80989 10.0829 2.33438 11.0382C1.74562 12.2209 1.89398 13.8928 3.10342 14.6356C4.33854 15.3942 6.70702 14.9278 7.5243 13.613C7.92544 14.1934 8.52184 14.603 9.27129 14.7427C10.3471 14.9433 11.4865 14.6017 12.3801 14.0008C13.3686 13.3359 14.0322 12.2425 13.7766 11.0308ZM6.72038 4.32341C7.00997 3.73991 7.42136 3.10736 8.04886 2.84946C8.20041 2.78719 8.36109 2.75231 8.52518 2.73991C8.4143 3.09831 8.43085 3.60024 8.45757 3.92657C8.44733 3.97251 8.44481 4.02231 8.45297 4.07574C8.46099 4.12881 8.47724 4.17282 8.49008 4.22418C8.5896 4.62243 9.26572 4.54747 9.21896 4.12554C9.19529 3.9115 9.19759 3.69397 9.20145 3.47889C9.20405 3.3387 9.21221 3.19872 9.22542 3.0592C9.23106 3.00019 9.23069 3.01489 9.24071 2.96093C9.24331 2.94713 9.24531 2.93644 9.24709 2.92746C9.27314 2.89978 9.29504 2.86838 9.3127 2.83491C9.53305 2.90059 9.7436 2.99418 9.92959 3.10514C10.7208 3.57738 10.9755 4.5258 11.0538 5.41054C10.3059 5.55043 9.5634 5.70674 8.80157 5.75772C7.98362 5.81249 6.99223 5.7831 6.4385 5.08769C6.42529 5.07107 6.41149 5.05689 6.39753 5.04376C6.49713 4.79854 6.6043 4.55734 6.72038 4.32341ZM11.8627 13.4538C11.1723 13.8985 10.2905 14.1571 9.46863 14.027C8.59814 13.8891 8.02318 13.2832 7.79556 12.4505C7.68631 12.0506 7.05131 12.1252 7.06667 12.5492C7.09235 13.2566 6.4817 13.7263 5.88269 13.9735C5.19789 14.2562 4.39064 14.346 3.68394 14.0961C2.70636 13.7503 2.6026 12.4621 2.88626 11.6266C3.07462 11.0718 3.48333 10.6104 3.88462 10.1974C4.27552 9.7952 4.84336 9.32444 5.44659 9.41877C5.90934 9.4912 6.11061 8.79342 5.65915 8.70629C5.68461 8.52831 5.67177 8.33631 5.67503 8.17088C5.68386 7.72944 5.74962 7.29208 5.83979 6.86051C5.91216 6.51436 6.0047 6.16792 6.11388 5.82578C6.76684 6.43413 7.75407 6.53641 8.61595 6.50909C9.45045 6.48275 10.2682 6.31331 11.0857 6.15738C11.0889 7.24154 10.9174 8.31776 10.8146 9.39487C10.7939 9.61092 11.0001 9.74703 11.1856 9.76595C12.0474 9.85398 12.8407 10.357 13.061 11.228C13.2962 12.1585 12.5889 12.9861 11.8627 13.4538Z" fill="black"/>
<path d="M10.3875 12.6417C10.3191 12.563 10.22 12.5117 10.1094 12.5117C9.9075 12.5117 9.73769 12.6805 9.73828 12.8828C9.73865 12.9924 9.77153 13.0974 9.8505 13.1763C9.93065 13.2565 10.0347 13.2906 10.1465 13.291C10.3488 13.2916 10.5176 13.1218 10.5176 12.9199C10.5176 12.8092 10.4662 12.71 10.3875 12.6417Z" fill="black"/>
<path d="M9.36922 11.3242H9.34139C8.86277 11.3242 8.86277 12.0664 9.34139 12.0664H9.36922C9.84785 12.0664 9.84785 11.3242 9.36922 11.3242Z" fill="black"/>
<path d="M11.6699 10.916C11.5593 10.916 11.4602 10.9673 11.3918 11.046C11.3131 11.1143 11.2617 11.2135 11.2617 11.3242C11.2617 11.5261 11.4305 11.6959 11.6328 11.6953C11.7424 11.695 11.8474 11.662 11.9263 11.5831C12.0065 11.5029 12.0406 11.3989 12.041 11.2871C12.0416 11.0848 11.8718 10.916 11.6699 10.916Z" fill="black"/>
<path d="M6.2902 10.8397C6.2778 10.8273 6.26548 10.8149 6.25309 10.8026C6.11015 10.6596 5.87124 10.6596 5.7283 10.8026C5.58536 10.9455 5.58536 11.1844 5.7283 11.3273C5.74069 11.3397 5.75301 11.3521 5.76541 11.3644C5.90835 11.5074 6.14725 11.5074 6.2902 11.3644C6.43314 11.2215 6.43314 10.9826 6.2902 10.8397Z" fill="black"/>
<path d="M4.46834 10.8057C3.98972 10.8057 3.98972 11.5478 4.46834 11.5478C4.94697 11.5478 4.94697 10.8057 4.46834 10.8057Z" fill="black"/>
<path d="M5.06405 12.2158C4.58542 12.2158 4.58542 12.958 5.06405 12.958C5.54267 12.958 5.54267 12.2158 5.06405 12.2158Z" fill="black"/>
</svg>
