<svg width="16" height="16" viewBox="0 0 16 16" fill="none" xmlns="http://www.w3.org/2000/svg">
<path fill-rule="evenodd" clip-rule="evenodd" d="M5.5 1.5H6.5V3.5H7.5V1.5H8.5V3.5H9.5V1.5H10.5V3.5H11.5L12.5 4.5V5.5H14.5V6.5H12.5V7.5H14.5V8.5H12.5V9.5H14.5V10.5H12.5V11.5L11.5 12.5H10.5V14.5H9.5V12.5H8.5V14.5H7.5V12.5H6.5V14.5H5.5V12.5H4.5L3.5 11.5V10.5H1.5V9.5H3.5V8.5H1.5V7.5H3.5V6.5H1.5V5.5H3.5V4.5L4.5 3.5H5.5V1.5ZM4.5 11.5H11.5V4.5H4.5V11.5Z" fill="black"/>
<path fill-rule="evenodd" clip-rule="evenodd" d="M5.88867 5.31788L6.22554 5.13477L10.1125 7.81449V8.18518L6.22554 10.8649L5.88867 10.6773V5.31788ZM6.52736 6.24189V9.75879L9.29649 8.00208L6.52736 6.24189Z" fill="black"/>
</svg>
