<svg width="16" height="16" viewBox="0 0 16 16" fill="none" xmlns="http://www.w3.org/2000/svg">
<path fill-rule="evenodd" clip-rule="evenodd" d="M4.92308 1H6.15385V2.46154H9.84615V1H11.0769V2.46154H12.3077L13.5385 3.69231V4.92308H15V6.15385H13.5385V9.84615H15V11.0769H13.5385V12.3077L12.3077 13.5385H11.0769V15H9.84615V13.5385H6.15385V15H4.92308V13.5385H3.69231L2.46154 12.3077V11.0769H1V9.84615H2.46154V6.15385H1V4.92308H2.46154V3.69231L3.69231 2.46154H4.92308V1ZM12.3077 12.3077H3.69231V3.69231H12.3077V12.3077Z" fill="white"/>
<path fill-rule="evenodd" clip-rule="evenodd" d="M6.16602 5.31788L6.50289 5.13477L10.3899 7.81449V8.18518L6.50289 10.8649L6.16602 10.6773V5.31788ZM6.80471 6.24189V9.75879L9.57383 8.00208L6.80471 6.24189Z" fill="white"/>
</svg>
